<!-- SPDX-FileCopyrightText: 2026 Blackcat Informatics® Inc. <paudley@blackcatinformatics.ca> -->
<!-- SPDX-License-Identifier: MIT OR Apache-2.0 -->
<svg xmlns="http://www.w3.org/2000/svg" viewBox="0 0 1280 640" role="img" aria-labelledby="t d">
  <title id="t">PURRDF</title>
  <desc id="d">RDF 1.2 primitives, GTS graph transport, SHACL and ShEx shapes, and SPARQL support.</desc>
  <defs>
    <linearGradient id="bg" x1="0" y1="0" x2="1" y2="1">
      <stop offset="0" stop-color="#0b0f17"/>
      <stop offset="1" stop-color="#141c2b"/>
    </linearGradient>
    <filter id="glow" x="-15%" y="-15%" width="130%" height="130%" color-interpolation-filters="sRGB">
      <feDropShadow dx="0" dy="0" stdDeviation="14" flood-color="#ffffff" flood-opacity="0.55"/>
    </filter>
    <style>
      .cat { fill: #111214; }
      .feature { fill: #ffffff; }
      .feature-stroke { fill: none; stroke: #ffffff; stroke-linecap: round; stroke-linejoin: round; }
      .frame { fill: #fffdf5; stroke: #111214; stroke-width: 8; }
      .node { fill: #fffdf5; stroke: #111214; stroke-width: 8; }
      .edge { fill: none; stroke-linecap: round; }
      .content-line { fill: none; stroke: #111214; stroke-width: 6; stroke-linecap: round; }
      .title { font-family: "DejaVu Sans", "Helvetica Neue", Arial, sans-serif; font-weight: 700; }
      .body { font-family: "DejaVu Sans", "Helvetica Neue", Arial, sans-serif; font-weight: 400; }
      .mono { font-family: "DejaVu Sans Mono", "SFMono-Regular", Consolas, monospace; }
    </style>
  </defs>

  <rect width="1280" height="640" fill="url(#bg)"/>

  <!-- PURRDF logo (cat + append-only chain), reused from docs/purrdf-logo.svg -->
  <g transform="translate(48,98) scale(0.435)" filter="url(#glow)">
    <g class="cat-head-core">
      <path class="cat" d="M512 268 C548 268 583 272 616 282 C677 204 777 116 811 119 C833 154 842 280 825 374 C820 405 813 434 804 459 C820 474 842 481 864 478 C853 507 827 529 794 540 C817 551 841 555 867 552 C850 580 817 601 776 607 C737 694 635 750 512 750 C389 750 287 694 248 607 C207 601 174 580 157 552 C183 555 207 551 230 540 C197 529 171 507 160 478 C182 481 204 474 220 459 C211 434 204 405 199 374 C182 280 191 154 213 119 C247 116 347 204 408 282 C441 272 476 268 512 268 Z"/>
      <path class="feature" d="M251 173 C289 192 360 250 399 318 C364 337 330 355 299 374 C267 312 247 235 251 173 Z"/>
      <path class="feature" d="M773 173 C735 192 664 250 625 318 C660 337 694 355 725 374 C757 312 777 235 773 173 Z"/>
      <path class="feature" d="M307 458 C352 427 420 426 474 459 C430 501 358 503 307 458 Z"/>
      <path class="feature" d="M550 459 C604 426 672 427 717 458 C666 503 594 501 550 459 Z"/>
      <path class="cat" d="M386 442 C407 470 407 527 386 555 C365 527 365 470 386 442 Z"/>
      <path class="cat" d="M638 442 C659 470 659 527 638 555 C617 527 617 470 638 442 Z"/>
      <path class="feature" d="M396 461 C404 474 403 493 396 508 C386 493 387 474 396 461 Z"/>
      <path class="feature" d="M648 461 C656 474 655 493 648 508 C638 493 639 474 648 461 Z"/>
      <path class="feature-stroke" stroke-width="9" d="M307 422 C358 397 432 405 474 447"/>
      <path class="feature-stroke" stroke-width="9" d="M717 422 C666 397 592 405 550 447"/>
      <path class="feature" d="M475 570 C491 558 533 558 549 570 C544 586 528 601 512 614 C496 601 480 586 475 570 Z"/>
      <g stroke-width="7">
        <path class="feature-stroke" d="M226 552 C293 541 354 546 409 566"/>
        <path class="feature-stroke" d="M236 585 C301 572 361 578 416 599"/>
        <path class="feature-stroke" d="M798 552 C731 541 670 546 615 566"/>
        <path class="feature-stroke" d="M788 585 C723 572 663 578 608 599"/>
      </g>
    </g>
    <g class="service-chain">
      <path class="edge" stroke="#4285f4" stroke-width="13" d="M438 668 L438 848"/>
      <rect class="frame" x="449" y="636" width="150" height="64" rx="14"/>
      <rect class="frame" x="449" y="726" width="150" height="64" rx="14"/>
      <rect class="frame" x="449" y="816" width="150" height="64" rx="14"/>
      <circle class="node" cx="438" cy="668" r="14"/>
      <circle class="node" cx="438" cy="758" r="14"/>
      <circle class="node" cx="438" cy="848" r="14"/>
      <circle cx="479" cy="668" r="11" fill="#ea4335"/>
      <circle cx="479" cy="758" r="11" fill="#fbbc05"/>
      <circle cx="479" cy="848" r="11" fill="#34a853"/>
      <g class="content-line">
        <path d="M505 656 L575 656"/><path d="M505 680 L552 680"/>
        <path d="M505 746 L575 746"/><path d="M505 770 L552 770"/>
        <path d="M505 836 L575 836"/><path d="M505 860 L552 860"/>
      </g>
    </g>
    <g class="cat">
      <path d="M459 604 C474 621 492 629 512 629 C532 629 550 621 565 604 L565 637 C552 633 545 642 540 657 C527 650 518 640 512 627 C506 640 497 650 484 657 C479 642 472 633 459 637 Z"/>
      <path d="M446 615 L471 615 L459 638 Z"/>
      <path d="M553 615 L578 615 L565 638 Z"/>
    </g>
  </g>

  <!-- Text block -->
  <text class="title" x="566" y="214" font-size="128" fill="#ffffff" letter-spacing="2">PURRDF</text>
  <text class="body" x="570" y="282" font-size="44" fill="#c9d6e8">RDF primitives and graph transport</text>
  <text class="body" x="570" y="354" font-size="32" fill="#7fa8ff">GTS, SHACL, ShEx, SPARQL, and native codecs.</text>

  <!-- Language chips -->
  <g class="body" font-size="30" fill="#dbe4f0">
    <circle cx="582" cy="430" r="11" fill="#ea4335"/><text x="602" y="440">Rust</text>
    <circle cx="712" cy="430" r="11" fill="#4285f4"/><text x="732" y="440">Python</text>
    <circle cx="876" cy="430" r="11" fill="#34a853"/><text x="896" y="440">Go</text>
    <circle cx="968" cy="430" r="11" fill="#fbbc05"/><text x="988" y="440">TypeScript</text>
    <circle cx="582" cy="472" r="11" fill="#7b3f98"/><text x="602" y="482">Smalltalk</text>
    <circle cx="782" cy="472" r="11" fill="#ff6f00"/><text x="802" y="482">Kotlin</text>
  </g>

  <text class="mono" x="570" y="506" font-size="23" fill="#7488a0">content-addressed · append-only · MIT OR Apache-2.0</text>

  <!-- Accent bar -->
  <g>
    <rect x="0" y="628" width="256" height="12" fill="#ea4335"/>
    <rect x="256" y="628" width="256" height="12" fill="#4285f4"/>
    <rect x="512" y="628" width="256" height="12" fill="#fbbc05"/>
    <rect x="768" y="628" width="256" height="12" fill="#34a853"/>
    <rect x="1024" y="628" width="256" height="12" fill="#7b3f98"/>
  </g>
</svg>
